/* XPM */
/* $Id: simlife-pause.xpm,v 1.1 1999/08/08 15:48:48 root Exp $ */
static char * simlife_pause_xpm[] = {
"20 20 3 1",
"  c None",
"! c black",
"# c yellow",
"                    ",
"                    ",
"                    ",
"       !!    !!     ",
"      !##!  !##!    ",
"      !##!  !##!    ",
"      !##!  !##!    ",
"      !##!  !##!    ",
"      !##!  !##!    ",
"      !##!  !##!    ",
"      !##!  !##!    ",
"      !##!  !##!    ",
"      !##!  !##!    ",
"      !##!  !##!    ",
"      !##!  !##!    ",
"      !##!  !##!    ",
"      !##!  !##!    ",
"      !##!  !##!    ",
"       !!    !!     ",
"                    ",
};
