/* XPM */
/* $Id: simlife-start.xpm,v 1.1 1999/08/08 15:48:48 root Exp $ */
static char * simlife_begin_xpm[] = {
"20 20 3 1",
"  c None",
"! c black",
"# c green",
"                    ",
"                    ",
"                    ",
"      !!!!          ",
"      !###!         ",
"      !####!        ",
"      !#####!       ",
"      !######!      ",
"      !#######!     ",
"      !########!    ",
"      !#########!   ",
"      !#########!   ",
"      !########!    ",
"      !#######!     ",
"      !######!      ",
"      !#####!       ",
"      !####!        ",
"      !###!         ",
"      !!!!          ",
"                    ",
};
