/* XPM */
/* $Id: simlife-stepto.xpm,v 1.1 1999/08/08 15:48:48 root Exp root $ */
static char * simlife_goto_xpm[] = {
"20 20 4 1",
"  c None",
"! c black",
"# c green",
"$ c yellow",
"                    ",
"                    ",
"                    ",
"   !!!!         !!  ",
"   !###!       !$$! ",
"   !####!      !$$! ",
"   !#####!     !$$! ",
"   !######!    !$$! ",
"   !#######!   !$$! ",
"   !########!  !$$! ",
"   !#########! !$$! ",
"   !#########! !$$! ",
"   !########!  !$$! ",
"   !#######!   !$$! ",
"   !######!    !$$! ",
"   !#####!     !$$! ",
"   !####!      !$$! ",
"   !###!       !$$! ",
"   !!!!         !!  ",
"                    ",
};
